{"extensionsUsed" : ["KHR_materials_pbrSpecularGlossiness"], "accessors" : [{"bufferView" : 0, "byteOffset" : 0, "componentType" : 5123, "count" : 36, "type" : "SCALAR", "max" : [19], "min" : [0]}, {"bufferView" : 1, "byteOffset" : 0, "componentType" : 5126, "count" : 20, "type" : "VEC3", "max" : [471.4579162597656, 657.3889770507812, 210.8509521484375], "min" : [145.019775390625, 173.77871704101562, -42.850955963134766], "name" : "POSITION"}, {"bufferView" : 1, "byteOffset" : 12, "componentType" : 5126, "count" : 20, "type" : "VEC3", "max" : [0.5952287316322327, 0.803561806678772, 1.0000044107437134], "min" : [0, -0.803561806678772, -1.0000044107437134], "name" : "NORMAL"}, {"bufferView" : 0, "byteOffset" : 72, "componentType" : 5123, "count" : 36, "type" : "SCALAR", "max" : [23], "min" : [0]}, {"bufferView" : 2, "byteOffset" : 0, "componentType" : 5126, "count" : 24, "type" : "VEC3", "max" : [688.3109130859375, 507.00042724609375, 210.8509521484375], "min" : [504.3858642578125, 324.167236328125, -42.850955963134766], "name" : "POSITION"}, {"bufferView" : 2, "byteOffset" : 12, "componentType" : 5126, "count" : 24, "type" : "VEC3", "max" : [1.0000044107437134, 1.0000044107437134, 1.0000044107437134], "min" : [-1.0000044107437134, -1.0000044107437134, -1.0000044107437134], "name" : "NORMAL"}, {"bufferView" : 0, "byteOffset" : 144, "componentType" : 5123, "count" : 24, "type" : "SCALAR", "max" : [15], "min" : [0]}, {"bufferView" : 3, "byteOffset" : 0, "componentType" : 5126, "count" : 16, "type" : "VEC3", "max" : [360.66009521484375, 657.3889770507812, 210.8509521484375], "min" : [145.019775390625, 173.77871704101562, -42.850955963134766], "name" : "POSITION"}, {"bufferView" : 3, "byteOffset" : 12, "componentType" : 5126, "count" : 16, "type" : "VEC3", "max" : [-0.5928546190261841, 0.8053150177001953, 0], "min" : [-1.0000044107437134, -0.8053150177001953, 0], "name" : "NORMAL"}, {"bufferView" : 0, "byteOffset" : 192, "componentType" : 5123, "count" : 1224, "type" : "SCALAR", "max" : [599], "min" : [0]}, {"bufferView" : 4, "byteOffset" : 0, "componentType" : 5126, "count" : 600, "type" : "VEC3", "max" : [829.7572631835938, 829.7572631835938, 168], "min" : [0, 0, 0], "name" : "POSITION"}, {"bufferView" : 4, "byteOffset" : 12, "componentType" : 5126, "count" : 600, "type" : "VEC3", "max" : [1.0000044107437134, 1.0000044107437134, 1.0000044107437134], "min" : [-1.0000044107437134, -1.0000044107437134, -1.0000044107437134], "name" : "NORMAL"}, {"bufferView" : 0, "byteOffset" : 2640, "componentType" : 5123, "count" : 60, "type" : "SCALAR", "max" : [39], "min" : [0]}, {"bufferView" : 5, "byteOffset" : 0, "componentType" : 5126, "count" : 40, "type" : "VEC3", "max" : [688.3109130859375, 657.3889770507812, 168], "min" : [145.019775390625, 173.77871704101562, 0], "name" : "POSITION"}, {"bufferView" : 5, "byteOffset" : 12, "componentType" : 5126, "count" : 40, "type" : "VEC3", "max" : [1.0000044107437134, 1.0000044107437134, 0], "min" : [-1.0000044107437134, -1.0000044107437134, 0], "name" : "NORMAL"}], "asset" : {"generator" : "Aspose.3D 25.2.0", "version" : "2.0"}, "buffers" : [{"uri" : "data:application/octet-stream;base64,", "byteLength" : 19584}], "bufferViews" : [{"buffer" : 0, "byteOffset" : 0, "byteLength" : 2760, "target" : 34963}, {"buffer" : 0, "byteOffset" : 2764, "byteLength" : 480, "byteStride" : 24, "target" : 34962}, {"buffer" : 0, "byteOffset" : 3248, "byteLength" : 576, "byteStride" : 24, "target" : 34962}, {"buffer" : 0, "byteOffset" : 3828, "byteLength" : 384, "byteStride" : 24, "target" : 34962}, {"buffer" : 0, "byteOffset" : 4216, "byteLength" : 14400, "byteStride" : 24, "target" : 34962}, {"buffer" : 0, "byteOffset" : 18620, "byteLength" : 960, "byteStride" : 24, "target" : 34962}], "materials" : [{"name" : "", "extensions" : {"KHR_materials_pbrSpecularGlossiness" : {"diffuseFactor" : [1, 1, 1, 1], "specularFactor" : [0.5, 0.5, 0.5], "glossinessFactor" : 0.5}}, "pbrMetallicRoughness" : {"baseColorFactor" : [1, 1, 1, 1], "metallicFactor" : 0.5, "roughnessFactor" : 0.5}, "emissiveFactor" : [0, 0, 0], "alphaMode" : "OPAQUE", "doubleSided" : true}, {"name" : "", "extensions" : {"KHR_materials_pbrSpecularGlossiness" : {"diffuseFactor" : [0, 0.545098066329956, 0.800000011920929, 1], "specularFactor" : [0, 0.272549033164978, 0.4000000059604645], "glossinessFactor" : 0.5}}, "pbrMetallicRoughness" : {"baseColorFactor" : [0, 0.545098066329956, 0.800000011920929, 1], "metallicFactor" : 0.5, "roughnessFactor" : 0.5}, "emissiveFactor" : [0, 0, 0], "alphaMode" : "OPAQUE", "doubleSided" : true}, {"name" : "", "extensions" : {"KHR_materials_pbrSpecularGlossiness" : {"diffuseFactor" : [0.7764706015586853, 0.7764706015586853, 0.7764706015586853, 1], "specularFactor" : [0.38823530077934265, 0.38823530077934265, 0.38823530077934265], "glossinessFactor" : 0.5}}, "pbrMetallicRoughness" : {"baseColorFactor" : [0.7764706015586853, 0.7764706015586853, 0.7764706015586853, 1], "metallicFactor" : 0.5, "roughnessFactor" : 0.5}, "emissiveFactor" : [0, 0, 0], "alphaMode" : "OPAQUE", "doubleSided" : true}, {"name" : "", "extensions" : {"KHR_materials_pbrSpecularGlossiness" : {"diffuseFactor" : [0, 0.8941176533699036, 1, 1], "specularFactor" : [0, 0.4470588266849518, 0.5], "glossinessFactor" : 0.5}}, "pbrMetallicRoughness" : {"baseColorFactor" : [0, 0.8941176533699036, 1, 1], "metallicFactor" : 0.5, "roughnessFactor" : 0.5}, "emissiveFactor" : [0, 0, 0], "alphaMode" : "OPAQUE", "doubleSided" : true}, {"name" : "", "extensions" : {"KHR_materials_pbrSpecularGlossiness" : {"diffuseFactor" : [0.6000000238418579, 0.19607843458652496, 1, 1], "specularFactor" : [0.30000001192092896, 0.09803921729326248, 0.5], "glossinessFactor" : 0.5}}, "pbrMetallicRoughness" : {"baseColorFactor" : [0.6000000238418579, 0.19607843458652496, 1, 1], "metallicFactor" : 0.5, "roughnessFactor" : 0.5}, "emissiveFactor" : [0, 0, 0], "alphaMode" : "OPAQUE", "doubleSided" : true}], "meshes" : [{"primitives" : [{"attributes" : {"POSITION" : 1, "NORMAL" : 2}, "indices" : 0, "material" : 0, "mode" : 4}]}, {"primitives" : [{"attributes" : {"POSITION" : 4, "NORMAL" : 5}, "indices" : 3, "material" : 1, "mode" : 4}]}, {"primitives" : [{"attributes" : {"POSITION" : 7, "NORMAL" : 8}, "indices" : 6, "material" : 2, "mode" : 4}]}, {"primitives" : [{"attributes" : {"POSITION" : 10, "NORMAL" : 11}, "indices" : 9, "material" : 3, "mode" : 4}]}, {"primitives" : [{"attributes" : {"POSITION" : 13, "NORMAL" : 14}, "indices" : 12, "material" : 4, "mode" : 4}]}], "nodes" : [{"mesh" : 0, "name" : "3DGeom-3"}, {"mesh" : 1, "name" : "3DGeom-4"}, {"mesh" : 2, "name" : "3DGeom-5"}, {"children" : [0, 1, 2], "matrix" : [0.01289287954568863, 0, 0, 0, 0, 0.01289287954568863, 0, 0, 0, 0, 0.013897006399929523, 0, -10.69796085357666, 1.1368683772161603E-13, 5.684341886080802E-14, 1], "name" : "Node #5"}, {"mesh" : 3, "name" : "3DGeom-6"}, {"mesh" : 4, "name" : "3DGeom-7"}, {"children" : [4, 5], "matrix" : [0.01289287954568863, 0, 0, 0, 0, 0.01289287954568863, 0, 0, 0, 0, 0.013897006399929523, 0, -10.69796085357666, 0, 0, 1], "name" : "Node #9"}, {"children" : [3, 6], "matrix" : [0.02539999969303608, 0, 0, 0, 0, 0.02539999969303608, 0, 0, 0, 0, 0.02539999969303608, 0, 0, 0, 0, 1], "name" : "Assembly-4"}, {"children" : [7], "matrix" : [1, 0, 0, 0, 0, 4.4896593387466766E-11, -1, 0, 0, 1, 4.4896593387466766E-11, 0, 0, 0, 0, 1], "name" : "Node #0"}], "scene" : 0, "scenes" : [{"nodes" : [8]}]}